<svg xmlns="http://www.w3.org/2000/svg" xmlns:xlink="http://www.w3.org/1999/xlink" version="1.1" x="0px" y="0px" viewBox="0 0 100 100" xml:space="preserve"><path style="fill:#8b3fba;" d="M49,67.6549072v4.1785889c0,0.5522461,0.4477539,1,1,1s1-0.4477539,1-1v-4.1785889  c8.0003052-0.5192871,14.3554688-7.1755371,14.3554688-15.3048096c0-8.2119141-14.0097656-24.1708984-14.605957-24.8461914  c-0.3798828-0.4296875-1.1191406-0.4296875-1.4990234,0c-0.5961914,0.675293-14.605957,16.6342773-14.605957,24.8461914  C34.6445312,60.4793701,40.9996948,67.1356201,49,67.6549072z M36.6445312,52.3500977  c0-5.8470459,8.5779419-16.880127,12.3554688-21.454895v24.7869263l-4.7719727-4.7719727  c-0.390625-0.390625-1.0234375-0.390625-1.4140625,0s-0.390625,1.0234375,0,1.4140625L49,58.5102539v7.1446533  C42.1026001,65.1401367,36.6445312,59.3768311,36.6445312,52.3500977z M51,65.6549072v-7.1446533l6.1860352-6.1860352  c0.390625-0.390625,0.390625-1.0234375,0-1.4140625s-1.0234375-0.390625-1.4140625,0L51,55.6821289V30.8950195  c3.7775269,4.5740967,12.3554688,15.6054077,12.3554688,21.4550781C63.3554688,59.3768311,57.8973999,65.1401367,51,65.6549072z"/><path style="fill:#8b3fba;" d="M44.7241211,84.7084961c0.034668,0.0039062,0.0688477,0.0053711,0.1025391,0.0053711  c0.5068359,0,0.9414062-0.3837891,0.9936523-0.8984375c0.0561523-0.5493164-0.34375-1.0405273-0.8930664-1.0961914  C28.1972656,81.012207,15.5810547,66.9697266,15.5810547,50.0541992c0-16.8673096,12.9203491-31.0751953,29.5435791-32.6746216  l-3.5108643,3.5261841c-0.3896484,0.3916016-0.3886719,1.0244141,0.0029297,1.4140625  c0.1953125,0.1943359,0.4501953,0.2915039,0.7055664,0.2915039c0.2568359,0,0.5131836-0.0981445,0.7084961-0.2944336  l5.2763672-5.2993164c0.3886719-0.3901367,0.3886719-1.0209961,0-1.4111328l-5.2763672-5.2993164  c-0.3891602-0.3911133-1.0219727-0.3920898-1.4140625-0.0029297c-0.3916016,0.3896484-0.3925781,1.0224609-0.0029297,1.4140625  l3.6254272,3.6412964c-17.788147,1.5504761-31.6581421,16.6970825-31.6581421,34.6946411  C13.5810547,67.9995117,26.9697266,82.8974609,44.7241211,84.7084961z"/><path style="fill:#8b3fba;" d="M54.6171875,17.3066406c16.7299805,1.7070312,29.3461914,15.7495117,29.3461914,32.6650391  c0,16.8673096-12.9203491,31.0756836-29.5435791,32.6746826l3.5108643-3.5262451  c0.3896484-0.3916016,0.3886719-1.0244141-0.0029297-1.4140625c-0.3916016-0.3901367-1.0244141-0.3881836-1.4140625,0.0029297  l-5.2763672,5.2993164c-0.3886719,0.3901367-0.3886719,1.0209961,0,1.4111328l5.2763672,5.2988281  c0.1953125,0.1962891,0.4516602,0.2944336,0.7084961,0.2944336c0.2553711,0,0.5102539-0.097168,0.7055664-0.2915039  c0.3916016-0.3896484,0.3925781-1.0229492,0.0029297-1.4140625l-3.6253662-3.6408081  c17.7880859-1.5501099,31.6580811-16.6966553,31.6580811-34.6946411c0-17.9453125-13.3886719-32.8432617-31.1430664-34.6542969  c-0.5551758-0.0664062-1.0405273,0.3442383-1.0961914,0.8930664C53.6679688,16.7597656,54.0678711,17.2509766,54.6171875,17.3066406  z"/></svg>